<svg width="512" height="512" viewBox="0 0 512 512" xmlns="http://www.w3.org/2000/svg">
  <defs>
    <linearGradient id="bg" x1="88" y1="52" x2="424" y2="460" gradientUnits="userSpaceOnUse">
      <stop offset="0" stop-color="#303b3d"/>
      <stop offset="0.58" stop-color="#181f21"/>
      <stop offset="1" stop-color="#111719"/>
    </linearGradient>
    <linearGradient id="accent" x1="158" y1="116" x2="372" y2="390" gradientUnits="userSpaceOnUse">
      <stop offset="0" stop-color="#d9c48f"/>
      <stop offset="0.54" stop-color="#8ec5d9"/>
      <stop offset="1" stop-color="#66a77f"/>
    </linearGradient>
    <filter id="shadow" x="-24%" y="-24%" width="148%" height="148%">
      <feDropShadow dx="0" dy="20" stdDeviation="22" flood-color="#000000" flood-opacity="0.34"/>
    </filter>
  </defs>
  <rect width="512" height="512" rx="112" fill="url(#bg)"/>
  <g filter="url(#shadow)">
    <rect x="124" y="100" width="264" height="264" rx="42" fill="#eef0ea"/>
    <rect x="146" y="122" width="220" height="220" rx="26" fill="#20292b"/>
    <path d="M182 302V164h148" fill="none" stroke="url(#accent)" stroke-width="24" stroke-linecap="round" stroke-linejoin="round"/>
    <path d="M330 210v92H238" fill="none" stroke="#eef0ea" stroke-width="22" stroke-linecap="round" stroke-linejoin="round" opacity="0.92"/>
    <circle cx="256" cy="256" r="30" fill="url(#accent)"/>
    <circle cx="256" cy="256" r="12" fill="#151b1d"/>
  </g>
  <g opacity="0.92">
    <rect x="116" y="394" width="280" height="18" rx="9" fill="#eef0ea" opacity="0.22"/>
    <rect x="116" y="394" width="118" height="18" rx="9" fill="#8ec5d9"/>
    <rect x="252" y="390" width="16" height="26" rx="8" fill="#d9c48f"/>
    <rect x="306" y="394" width="54" height="18" rx="9" fill="#66a77f" opacity="0.86"/>
  </g>
</svg>
