<svg width="512" height="512" viewBox="0 0 512 512" xmlns="http://www.w3.org/2000/svg">
  <defs>
    <linearGradient id="bg" x1="70" y1="44" x2="442" y2="462" gradientUnits="userSpaceOnUse">
      <stop stop-color="#f4f0e6"/>
      <stop offset="1" stop-color="#d8d2c5"/>
    </linearGradient>
    <linearGradient id="ink" x1="116" y1="114" x2="398" y2="394" gradientUnits="userSpaceOnUse">
      <stop stop-color="#3f4f52"/>
      <stop offset="1" stop-color="#172124"/>
    </linearGradient>
    <filter id="shadow" x="-20%" y="-20%" width="140%" height="140%">
      <feDropShadow dx="0" dy="18" stdDeviation="18" flood-color="#1c1a15" flood-opacity="0.18"/>
    </filter>
  </defs>
  <rect width="512" height="512" rx="112" fill="url(#bg)"/>
  <g filter="url(#shadow)">
    <rect x="118" y="136" width="276" height="220" rx="44" fill="url(#ink)"/>
    <rect x="154" y="102" width="204" height="288" rx="46" fill="#263236" opacity="0.94"/>
    <path d="M256 142 332 186v88l-76 44-76-44v-88z" fill="#e9e1cf"/>
    <path d="M256 142v88l76-44M332 274l-76-44v88M180 274l76-44-76-44" fill="none" stroke="#263236" stroke-width="14" stroke-linecap="round" stroke-linejoin="round"/>
    <circle cx="256" cy="230" r="32" fill="#78b5c8"/>
  </g>
  <rect x="174" y="406" width="164" height="18" rx="9" fill="#263236" opacity="0.88"/>
  <circle cx="360" cy="415" r="10" fill="#76a870"/>
</svg>
